<svg xmlns="http://www.w3.org/2000/svg" viewBox="0 0 1600 700" role="img" aria-labelledby="title desc">
  <title id="title">Abstract Hero 11</title>
  <desc id="desc">Layered abstract bands in indigo and coral.</desc>
  <defs>
    <linearGradient id="bg" x1="0" y1="0" x2="1" y2="1">
      <stop offset="0%" stop-color="#0b1020"/>
      <stop offset="45%" stop-color="#1e3a8a"/>
      <stop offset="100%" stop-color="#fb7185"/>
    </linearGradient>
  </defs>
  <rect width="1600" height="700" fill="url(#bg)"/>
  <path d="M-40 272C172 190 318 184 500 220C718 263 884 387 1092 379C1281 372 1413 271 1650 224V349C1456 404 1340 518 1128 526C910 535 748 413 524 382C331 356 170 374-40 435Z" fill="#bfdbfe" fill-opacity="0.24"/>
  <path d="M-30 460C138 410 305 396 493 429C714 467 884 589 1108 592C1313 595 1458 493 1630 432V560C1455 626 1319 690 1100 689C858 687 687 565 472 528C284 498 117 516-30 559Z" fill="#fecdd3" fill-opacity="0.22"/>
  <circle cx="230" cy="150" r="112" fill="#e0f2fe" fill-opacity="0.16"/>
  <circle cx="1370" cy="560" r="170" fill="#fff1f2" fill-opacity="0.13"/>
</svg>
