<svg xmlns="http://www.w3.org/2000/svg" viewBox="0 0 1600 700" role="img" aria-labelledby="title desc">
  <title id="title">Abstract Hero 07</title>
  <desc id="desc">Soft abstract bands with violet and sky gradients.</desc>
  <defs>
    <linearGradient id="bg" x1="0" y1="0" x2="1" y2="1">
      <stop offset="0%" stop-color="#111827"/>
      <stop offset="45%" stop-color="#4338ca"/>
      <stop offset="100%" stop-color="#38bdf8"/>
    </linearGradient>
  </defs>
  <rect width="1600" height="700" fill="url(#bg)"/>
  <path d="M-60 245C180 170 360 180 560 236C782 298 948 434 1170 421C1360 410 1485 320 1660 254V388C1472 455 1360 547 1142 555C926 563 766 448 540 405C336 366 170 377-60 446Z" fill="#dbeafe" fill-opacity="0.26"/>
  <path d="M-40 430C170 386 350 384 550 427C786 478 973 620 1220 617C1388 614 1526 555 1650 493V700H-40Z" fill="#020617" fill-opacity="0.34"/>
  <circle cx="1360" cy="130" r="132" fill="#f5f3ff" fill-opacity="0.16"/>
</svg>
