<svg xmlns="http://www.w3.org/2000/svg" viewBox="0 0 1600 700" role="img" aria-labelledby="title desc">
  <title id="title">Abstract Hero 16</title>
  <desc id="desc">Gentle abstract horizon with blue and rose accents.</desc>
  <defs>
    <linearGradient id="bg" x1="0" y1="0" x2="1" y2="1">
      <stop offset="0%" stop-color="#0f172a"/>
      <stop offset="48%" stop-color="#1e40af"/>
      <stop offset="100%" stop-color="#f43f5e"/>
    </linearGradient>
  </defs>
  <rect width="1600" height="700" fill="url(#bg)"/>
  <path d="M0 268C190 198 370 198 567 254C788 317 947 437 1174 430C1366 424 1491 346 1600 294V700H0Z" fill="#dbeafe" fill-opacity="0.21"/>
  <path d="M0 418C158 374 326 366 517 399C732 437 901 555 1128 556C1326 556 1460 490 1600 425V700H0Z" fill="#ffe4e6" fill-opacity="0.15"/>
  <path d="M0 560C185 500 367 490 582 534C801 577 954 680 1187 671C1352 665 1478 616 1600 568V700H0Z" fill="#020617" fill-opacity="0.31"/>
  <circle cx="1300" cy="140" r="138" fill="#eff6ff" fill-opacity="0.14"/>
</svg>
