<?xml version="1.0" standalone="no"?>
<!DOCTYPE svg PUBLIC "-//W3C//DTD SVG 20010904//EN"
 "http://www.w3.org/TR/2001/REC-SVG-20010904/DTD/svg10.dtd">
<svg version="1.0" xmlns="http://www.w3.org/2000/svg"
 width="600.000000pt" height="600.000000pt" viewBox="0 0 600.000000 600.000000"
 preserveAspectRatio="xMidYMid meet">
<metadata>
Created by potrace 1.14, written by Peter Selinger 2001-2017
</metadata>
<g transform="translate(0.000000,600.000000) scale(0.100000,-0.100000)"
fill="#000000" stroke="none">
<path d="M3878 4145 c-2 -2 -21 -5 -43 -8 -63 -8 -105 -19 -111 -28 -3 -5 -11
-9 -19 -9 -7 0 -61 -29 -119 -65 -82 -51 -116 -80 -155 -130 -71 -90 -123
-123 -341 -215 -41 -18 -91 -42 -110 -53 -57 -33 -200 -151 -200 -164 0 -9
-126 -218 -146 -242 -5 -6 -145 69 -209 112 -33 22 -98 73 -145 112 -112 94
-124 101 -200 119 l-65 16 -81 -40 c-71 -35 -193 -128 -280 -214 -64 -64 -70
-67 -145 -72 -110 -8 -133 -19 -212 -98 -78 -78 -157 -165 -452 -501 -334
-380 -533 -575 -778 -760 -69 -52 -83 -71 -44 -59 21 6 207 87 323 140 87 40
207 146 553 493 338 338 435 426 452 416 5 -4 9 -21 9 -40 0 -26 -12 -48 -52
-97 -55 -66 -300 -314 -403 -407 -34 -31 -55 -56 -48 -58 7 -3 50 5 95 16 72
18 100 33 215 111 72 50 135 90 138 90 3 0 4 -32 1 -71 l-6 -71 41 39 c80 74
87 84 109 144 13 33 35 75 50 94 15 19 47 79 70 133 55 125 83 175 139 241 59
70 126 112 226 144 130 41 212 26 385 -72 36 -20 80 -44 98 -52 38 -17 39 -23
9 -70 -26 -44 -65 -88 -244 -275 -137 -144 -229 -217 -359 -282 -79 -40 -302
-127 -484 -190 -226 -78 -373 -131 -399 -145 -28 -14 -91 -75 -91 -88 0 -5 10
-4 23 1 12 5 137 39 277 76 577 149 705 198 946 365 154 106 209 153 380 324
172 172 216 226 384 480 135 206 191 274 244 299 40 18 113 29 120 18 7 -11
-34 -140 -64 -205 -18 -39 -47 -68 -146 -148 -169 -136 -212 -182 -260 -276
-45 -87 -76 -215 -57 -234 23 -23 50 3 91 89 52 110 83 141 297 303 94 70 191
149 218 174 47 46 107 132 162 230 15 28 50 91 77 140 91 163 99 165 169 39
46 -84 56 -95 88 -104 151 -39 196 -52 199 -55 2 -2 -6 -6 -18 -10 -12 -4 -35
-25 -51 -48 l-31 -42 39 -12 c64 -20 619 -1 641 22 12 11 -20 28 -113 60 -79
27 -108 42 -151 81 -44 41 -64 51 -116 62 -35 8 -67 15 -73 16 -5 2 -28 6 -50
11 -62 13 -98 31 -101 51 -2 11 -6 49 -9 86 l-6 67 33 -11 c46 -16 113 -62
180 -125 31 -29 65 -53 75 -53 99 -1 194 -16 243 -38 260 -118 289 -127 720
-227 151 -35 188 -47 361 -116 225 -89 285 -99 389 -66 l45 14 -35 16 c-95 45
-473 188 -695 263 -455 154 -513 182 -696 330 -138 112 -259 181 -479 270 -71
29 -111 39 -157 40 -34 1 -64 0 -65 -1z"/>
</g>
</svg>
